# xmcd
#
# Track frame offsets: 
#        150
#        15765
#        34792
#        52984
#        92833
#        114811
#        132694
#        150990
#        168581
#        186146
#        208093
#        225756
#        244503
#        260944
#        273630
#        291563
#
# Disc length: 4127 seconds
#
# Revision: 0
# Processed by: cddbd v1.5.2PL0 Copyright (c) Steve Scherf et al.
# Submitted via: ExactAudioCopy v1.3
#
DISCID=d9101d10
DTITLE=Buck69 - No Medicine Like The Blues
DYEAR=2013
DGENRE=Blues
TTITLE0=These Blues
TTITLE1=Ugly Teacher Blues
TTITLE2=Dead End Road
TTITLE3=No Medicine Like the Blues
TTITLE4=That's Life
TTITLE5=Without My Baby
TTITLE6=Love Ain't Easy
TTITLE7=Just An Old Blues Man
TTITLE8=Tell Me Why
TTITLE9=Hard Times
TTITLE10=Carry On
TTITLE11=I Pray for Me
TTITLE12=Don't Shave My Beard When I Die
TTITLE13=Soakin Up The Blues
TTITLE14=My Car
TTITLE15=All Night Long
EXTD=
EXTT0=
EXTT1=
EXTT2=
EXTT3=
EXTT4=
EXTT5=
EXTT6=
EXTT7=
EXTT8=
EXTT9=
EXTT10=
EXTT11=
EXTT12=
EXTT13=
EXTT14=
EXTT15=
PLAYORDER=
